<?xml version="1.0" encoding="UTF-8"?>
<!DOCTYPE svg PUBLIC "-//W3C//DTD SVG 1.1//EN" "http://www.w3.org/Graphics/SVG/1.1/DTD/svg11.dtd">
<!-- Creator: CorelDRAW -->
<svg xmlns="http://www.w3.org/2000/svg" xml:space="preserve" width="210mm" height="297mm" style="shape-rendering:geometricPrecision; text-rendering:geometricPrecision; image-rendering:optimizeQuality; fill-rule:evenodd; clip-rule:evenodd"
viewBox="0 0 210 297"
 xmlns:xlink="http://www.w3.org/1999/xlink"
 xmlns:dc="http://purl.org/dc/elements/1.1/"
 xmlns:cc="http://creativecommons.org/ns#"
 xmlns:rdf="http://www.w3.org/1999/02/22-rdf-syntax-ns#"
 xmlns:svg="http://www.w3.org/2000/svg"
 xmlns:sodipodi="http://sodipodi.sourceforge.net/DTD/sodipodi-0.dtd"
 xmlns:inkscape="http://www.inkscape.org/namespaces/inkscape"
 version="1.1"
 inkscape:version="0.48.4 r9939"
 sodipodi:docname="PawPrint4.ai">
 <defs>
  <style type="text/css">
   <![CDATA[
    .fil0 {fill:white}
   ]]>
  </style>
 </defs>
 <g id="Camada_x0020_1">
  <metadata id="CorelCorpID_0Corel-Layer"/>
  <sodipodi:namedview pagecolor="#ffffff" bordercolor="#666666" borderopacity="1" objecttolerance="10" gridtolerance="10" guidetolerance="10" inkscape:pageopacity="0" inkscape:pageshadow="2" inkscape:window-width="1024" inkscape:window-height="708" id="namedview3035" showgrid="false" inkscape:zoom="0.46846973" inkscape:cx="372.04749" inkscape:cy="433.62355" inkscape:window-x="-4" inkscape:window-y="-4" inkscape:window-maximized="1" inkscape:current-layer="svg3021"/>
  <g id="g3023">
   <path id="path3025" class="fil0" d="M50.6404 136.956c8.0211,17.7941 5.5711,36.2479 -5.4716,41.2291 -11.043,4.9812 -26.4971,-5.401 -34.5175,-23.1916 -8.0211,-17.7906 -5.5714,-36.2461 5.4716,-41.2267 11.043,-4.9791 26.4964,5.4035 34.5175,23.1891l0 0.0001z" inkscape:connector-curvature="0"/>
   <path id="path3027" class="fil0" d="M159.798 136.956c-8.0215,17.7941 -5.5714,36.2479 5.4723,41.2291 11.043,4.9812 26.4957,-5.401 34.5179,-23.1916 8.02,-17.7906 5.57,-36.2461 -5.4726,-41.2267 -11.0423,-4.9791 -26.4964,5.4035 -34.5175,23.1891l-0.0001 0.0001z" inkscape:connector-curvature="0"/>
   <path id="path3029" class="fil0" d="M97.5784 101.292c4.1116,19.0743 -2.1558,36.6053 -13.9978,39.1594 -11.8411,2.5506 -24.7738,-10.8444 -28.8847,-29.917 -4.1109,-19.074 2.1562,-36.6056 13.9979,-39.1573 11.8417,-2.5527 24.7737,10.8405 28.8845,29.9148l0.0001 0.0001z" inkscape:connector-curvature="0"/>
   <path id="path3031" class="fil0" d="M112.565 101.309c-4.108,19.074 2.1549,36.6067 13.996,39.1573 11.8419,2.5541 24.774,-10.8409 28.8846,-29.9145 4.1113,-19.0743 -2.1551,-36.606 -13.9975,-39.1576 -11.842,-2.552 -24.7738,10.8405 -28.8831,29.9148z" inkscape:connector-curvature="0"/>
   <path id="path3033" class="fil0" d="M82.7571 165.054c-2.8901,4.9918 -16.2829,21.5159 -25.5462,27.1533 -9.2625,5.6374 -20.7405,13.8924 -18.8143,32.8471 1.9251,18.9583 21.3695,27.0722 34.1699,26.3525 12.8011,-0.7161 36.9356,-3.0727 54.1665,-0.6844 17.2301,2.3883 38.9771,0.5786 44.0698,-17.5719 5.0927,-18.1504 -6.2971,-29.7145 -15.185,-36.2761 -8.8875,-6.5581 -23.7296,-26.1761 -28.3023,-35.1825 -4.572,-9.0029 -27.8436,-25.4917 -44.5585,3.362l0.0001 0z" inkscape:connector-curvature="0"/>
  </g>
 </g>
</svg>
